<svg width="13" height="8" viewBox="0 0 13 8" fill="none" xmlns="http://www.w3.org/2000/svg">
<path d="M7.00963 7.33333L12.539 1.99318C12.667 1.86967 12.7375 1.70479 12.7375 1.52899C12.7375 1.35319 12.667 1.18831 12.539 1.0648L12.1319 0.671535C11.8667 0.415635 11.4355 0.415635 11.1706 0.671535L6.52736 5.15579L1.87893 0.666559C1.75094 0.543048 1.58032 0.474854 1.39838 0.474854C1.21624 0.474854 1.04562 0.543048 0.917528 0.666559L0.51052 1.05982C0.382527 1.18343 0.312016 1.34821 0.312016 1.52402C0.312016 1.69982 0.382527 1.8647 0.51052 1.98821L6.04499 7.33333C6.17339 7.45714 6.34482 7.52514 6.52706 7.52475C6.71 7.52514 6.88133 7.45714 7.00963 7.33333Z" fill="#28553F"/>
</svg>
