<svg width="19" height="19" viewBox="0 0 19 19" fill="none" xmlns="http://www.w3.org/2000/svg">
<path d="M17.4617 12.2874C16.4404 12.1613 15.4263 11.9827 14.4235 11.7521C14.1786 11.6702 13.9168 11.653 13.6633 11.702C13.4099 11.751 13.1734 11.8646 12.9767 12.0318C12.7211 12.2922 11.9832 13.0204 11.2164 13.7728C8.46904 12.4222 6.24717 10.1986 4.89871 7.45025C5.64622 6.68345 6.34551 5.95041 6.63005 5.69481C6.79724 5.49811 6.91083 5.26159 6.95984 5.00813C7.00884 4.75467 6.99159 4.49285 6.90976 4.24801C6.67886 3.24358 6.50018 2.22785 6.37444 1.20491C6.36097 1.07465 6.32112 0.948495 6.2573 0.834136C6.19349 0.719778 6.10706 0.619612 6.00328 0.539744C5.89949 0.459876 5.78053 0.401978 5.65364 0.369581C5.52676 0.337183 5.3946 0.330964 5.26523 0.351303H1.15633C0.986723 0.366615 0.827957 0.441271 0.707982 0.562128C0.588007 0.682985 0.514516 0.842294 0.500447 1.01201C0.2352 4.72063 2.30412 8.68968 2.72369 9.45166V9.48059L2.78156 9.59152C4.28351 12.1964 6.44609 14.359 9.05102 15.861L9.26322 15.9815C10.2277 16.4927 14.0618 18.4218 17.645 18.1566C17.8164 18.1447 17.978 18.0721 18.1009 17.952C18.2237 17.8318 18.2997 17.6718 18.3153 17.5007V13.3966C18.3357 13.2672 18.3295 13.1351 18.2971 13.0082C18.2647 12.8813 18.2068 12.7623 18.1269 12.6585C18.047 12.5548 17.9469 12.4683 17.8325 12.4045C17.7182 12.3407 17.592 12.3009 17.4617 12.2874Z" fill="white"/>
</svg>
