<svg width="21" height="21" viewBox="0 0 21 21" fill="none" xmlns="http://www.w3.org/2000/svg">
<path fill-rule="evenodd" clip-rule="evenodd" d="M3.55369 8.29062C3.55369 7.66856 3.67621 7.05259 3.91427 6.47788C4.15232 5.90317 4.50124 5.38097 4.9411 4.94111C5.38096 4.50125 5.90316 4.15233 6.47787 3.91428C7.05258 3.67622 7.66855 3.5537 8.29061 3.5537C8.91267 3.5537 9.52864 3.67622 10.1034 3.91428C10.6781 4.15233 11.2003 4.50125 11.6401 4.94111C12.08 5.38097 12.4289 5.90317 12.667 6.47788C12.905 7.05259 13.0275 7.66856 13.0275 8.29062C13.0275 9.54693 12.5285 10.7518 11.6401 11.6401C10.7518 12.5285 9.54692 13.0275 8.29061 13.0275C7.0343 13.0275 5.82945 12.5285 4.9411 11.6401C4.05276 10.7518 3.55369 9.54693 3.55369 8.29062ZM8.29061 0.395752C7.05953 0.395882 5.84555 0.683906 4.74563 1.23682C3.6457 1.78973 2.69032 2.59221 1.9558 3.58015C1.22128 4.56808 0.727975 5.71411 0.515289 6.92667C0.302604 8.13923 0.376433 9.38473 0.73088 10.5637C1.08533 11.7426 1.71057 12.8223 2.55666 13.7166C3.40275 14.6108 4.44624 15.2948 5.60378 15.7139C6.76132 16.133 8.00084 16.2756 9.2233 16.1303C10.4458 15.985 11.6173 15.5558 12.6444 14.877L17.7002 19.934C17.9964 20.2302 18.3982 20.3966 18.8171 20.3966C19.236 20.3966 19.6377 20.2302 19.934 19.934C20.2302 19.6378 20.3966 19.236 20.3966 18.8171C20.3966 18.3982 20.2302 17.9965 19.934 17.7002L14.877 12.6444C15.6637 11.4545 16.1132 10.0737 16.1779 8.64872C16.2426 7.22378 15.92 5.80792 15.2445 4.55162C14.5689 3.29532 13.5656 2.24551 12.3412 1.51376C11.1168 0.782008 9.71702 0.395652 8.29061 0.395752Z" fill="white"/>
</svg>
